#!OML:ASF H:\Martial Arts Walks\Project 1\Capture day 1\Session 1\male.ASF
:FULLY-SPECIFIED
:DEGREES
905
root -2.9447 14.444 24.8414 2.92714 17.5799 0.366274
lowerback 10.1787 0.651495 -5.67213
upperback -1.48167 0.225835 1.10715
thorax -7.33348 0.373294 4.34126
lowerneck 0.900436 -10.9073 -10.745
upperneck 11.7817 -15.5387 10.0437
head 5.01784 -7.68894 3.99379
rclavicle 6.00205e-014 -8.52289e-015
rhumerus -31.8323 15.255 -70.4288
rradius 63.8895
rwrist -0.284376
rhand -16.139 -42.1011
rfingers 7.12502
rthumb 10.066 -71.8404
lclavicle 6.00205e-014 -8.52289e-015
lhumerus -26.647 -29.4235 89.3728
lradius 96.3648
lwrist 27.6251
lhand -22.6492 17.9476
lfingers 7.12502
lthumb 3.78188 47.8938
rfemur -54.9514 -13.7129 16.1469
rtibia 65.1252
rfoot -9.45949 13.1361
rtoes 4.46013
lfemur 11.284 -1.43924 -9.73187
ltibia 38.4797
lfoot -25.2843 31.2896
ltoes -23.6045
906
root -2.94136 14.4309 24.8594 3.02832 17.7211 0.344361
lowerback 10.1474 0.605337 -5.69381
upperback -1.55096 0.16084 1.09546
thorax -7.38245 0.345343 4.35195
lowerneck 0.846479 -11.0707 -10.9176
upperneck 12.0548 -15.7836 10.1052
head 5.15675 -7.80794 4.00644
rclavicle -3.5334e-014 5.57839e-015
rhumerus -31.8776 15.095 -70.4264
rradius 63.4718
rwrist -0.020403
rhand -16.0563 -42.0543
rfingers 7.12502
rthumb 10.1458 -71.7896
lclavicle -3.5334e-014 5.57839e-015
lhumerus -26.586 -29.3326 89.3887
lradius 95.9856
lwrist 27.5796
lhand -22.5751 18.0693
lfingers 7.12502
lthumb 3.85339 48.0142
rfemur -55.1222 -13.8191 16.2145
rtibia 65.3985
rfoot -9.72703 12.8494
rtoes 4.23192
lfemur 11.4149 -1.54703 -9.74549
ltibia 38.0835
lfoot -25.5353 31.5723
ltoes -23.5167
907
root -2.93896 14.4164 24.8713 3.15802 17.829 0.301072
lowerback 10.1051 0.554173 -5.7039
upperback -1.57777 0.0939839 1.10674
thorax -7.37914 0.313905 4.38057
lowerneck 0.594617 -11.2655 -11.0785
upperneck 12.3521 -16.05 10.1131
head 5.33434 -7.93228 3.9851
rclavicle 2.99202e-014 5.09386e-016
rhumerus -31.8743 14.968 -70.4087
rradius 63.0953
rwrist 0.133891
rhand -16.1136 -42.0572
rfingers 7.12502
rthumb 10.0906 -71.7952
lclavicle 2.99202e-014 5.09386e-016
lhumerus -26.4561 -29.1656 89.3689
lradius 95.6608
lwrist 27.5901
lhand -22.6915 18.2492
lfingers 7.12502
lthumb 3.74102 48.1961
rfemur -55.3303 -13.7942 16.233
rtibia 65.6424
rfoot -9.96528 12.6515
rtoes 4.54183
lfemur 11.4791 -1.5647 -9.71322
ltibia 37.7494
lfoot -26.0474 31.6905
ltoes -23.2558
908
root -2.93644 14.3986 24.8858 3.2916 17.9505 0.454794
lowerback 10.0717 0.517886 -5.89359
upperback -1.59691 0.0194988 1.05852
thorax -7.37293 0.284684 4.44881
lowerneck 0.649544 -11.4063 -11.2972
upperneck 12.3863 -16.2684 10.2899
head 5.39305 -8.04152 4.05178
rclavicle 1.74065e-014 4.20243e-015
rhumerus -31.8543 14.7454 -70.4238
rradius 62.6009
rwrist 0.316235
rhand -16.0899 -42.309
rfingers 7.12502
rthumb 10.1134 -72.0459
lclavicle 1.74065e-014 4.20243e-015
lhumerus -26.404 -29.0519 89.3574
lradius 95.3293
lwrist 27.6436
lhand -22.8449 18.2698
lfingers 7.12502
lthumb 3.59288 48.2193
rfemur -55.461 -13.8343 16.0108
rtibia 65.8831
rfoot -10.3671 12.5256
rtoes 4.18719
lfemur 11.5973 -1.65494 -9.92243
ltibia 37.4391
lfoot -26.2232 32.0385
ltoes -23.2629
909
root -2.93218 14.3851 24.9002 3.36023 18.0978 0.382925
lowerback 10.0055 0.462211 -5.83525
upperback -1.61709 -0.043658 1.06044
thorax -7.34847 0.251048 4.42752
lowerneck 0.724305 -11.5588 -11.4591
upperneck 12.4861 -16.4944 10.339
head 5.45531 -8.15755 4.07027
rclavicle -1.16134e-014 2.23012e-015
rhumerus -31.8886 14.5774 -70.4251
rradius 62.1479
rwrist 0.446782
rhand -15.9167 -42.3172
rfingers 7.12502
rthumb 10.2805 -72.046
lclavicle -1.16134e-014 2.23012e-015
lhumerus -26.4244 -28.9162 89.3932
lradius 94.9886
lwrist 27.6487
lhand -22.8344 18.4124
lfingers 7.12502
lthumb 3.60305 48.3617
rfemur -55.5348 -13.8935 16.0228
rtibia 66.0866
rfoot -10.7529 12.397
rtoes 3.81263
lfemur 11.6784 -1.80797 -9.90441
ltibia 37.168
lfoot -26.5069 32.314
ltoes -23.0699
910
root -2.92914 14.3694 24.912 3.3965 18.1981 0.240342
lowerback 9.97006 0.424979 -5.72227
upperback -1.61459 -0.0756629 1.07703
thorax -7.32087 0.230029 4.38586
lowerneck 0.704902 -11.7247 -11.6129
upperneck 12.5928 -16.7342 10.4074
head 5.53855 -8.27578 4.08528
rclavicle 3.49403e-014 -3.41661e-015
rhumerus -31.9779 14.3984 -70.4659
rradius 61.7457
rwrist 0.448592
rhand -15.8606 -42.3778
rfingers 7.12502
rthumb 10.3346 -72.1039
lclavicle 3.49403e-014 -3.41661e-015
lhumerus -26.3878 -28.8066 89.377
lradius 94.6465
lwrist 27.6317
lhand -22.8733 18.6006
lfingers 7.12502
lthumb 3.56542 48.5505
rfemur -55.649 -13.9272 16.1329
rtibia 66.2929
rfoot -10.9863 12.3482
rtoes 3.68688
lfemur 11.7715 -1.86855 -9.77884
ltibia 36.9395
lfoot -26.6942 32.5956
ltoes -23.1063
